<!-- Generator: Adobe Illustrator 17.0.0, SVG Export Plug-In  -->
<svg version="1.1"
	 xmlns="http://www.w3.org/2000/svg" xmlns:xlink="http://www.w3.org/1999/xlink" xmlns:a="http://ns.adobe.com/AdobeSVGViewerExtensions/3.0/"
	 x="0px" y="0px" width="82px" height="82px" viewBox="0 0 82 82" enable-background="new 0 0 82 82" xml:space="preserve">
<defs>
</defs>
<g>
	<path fill="#FFFFFF" d="M41,82C18.392,82,0,63.607,0,41S18.392,0,41,0c22.607,0,41,18.393,41,41S63.607,82,41,82z M41,2
		C19.495,2,2,19.495,2,41s17.495,39,39,39s39-17.495,39-39S62.505,2,41,2z"/>
	<path fill="#FFFFFF" d="M52.047,23.013H29.962c-3.835,0-6.957,3.118-6.957,6.952v7.342v14.729c0,3.834,3.122,6.952,6.957,6.952
		h22.085c3.835,0,6.958-3.118,6.958-6.952V37.307v-7.342C59.005,26.131,55.882,23.013,52.047,23.013z M54.042,27.16l0.795-0.004
		v0.793v5.304l-6.081,0.022l-0.021-6.099L54.042,27.16z M35.868,37.307c1.149-1.595,3.021-2.641,5.137-2.641
		c2.115,0,3.985,1.046,5.136,2.641c0.751,1.041,1.203,2.313,1.203,3.693c0,3.492-2.845,6.33-6.339,6.33
		c-3.495,0-6.337-2.838-6.337-6.33C34.668,39.619,35.118,38.348,35.868,37.307z M55.497,52.035c0,1.902-1.547,3.446-3.45,3.446
		H29.962c-1.903,0-3.449-1.544-3.449-3.446V37.307h5.374c-0.463,1.143-0.726,2.388-0.726,3.693c0,5.426,4.416,9.837,9.844,9.837
		c5.428,0,9.843-4.411,9.843-9.837c0-1.306-0.264-2.551-0.725-3.693h5.374V52.035z"/>
</g>
</svg>