<!-- Generator: Adobe Illustrator 17.0.0, SVG Export Plug-In  -->
<svg version="1.1"
	 xmlns="http://www.w3.org/2000/svg" xmlns:xlink="http://www.w3.org/1999/xlink" xmlns:a="http://ns.adobe.com/AdobeSVGViewerExtensions/3.0/"
	 x="0px" y="0px" width="82.004px" height="82px" viewBox="0 0 82.004 82" enable-background="new 0 0 82.004 82"
	 xml:space="preserve">
<defs>
</defs>
<g>
	<path fill="#FFFFFF" d="M41.002,82C18.394,82,0,63.607,0,40.999C0,18.392,18.394,0,41.002,0s41.002,18.392,41.002,40.999
		C82.004,63.607,63.61,82,41.002,82z M41.002,2C19.496,2,2,19.495,2,40.999C2,62.504,19.496,80,41.002,80
		c21.506,0,39.002-17.496,39.002-39.001C80.004,19.495,62.508,2,41.002,2z"/>
	<path fill="#FFFFFF" d="M41.284,23v9.099h8.543v5.651h-8.543v9.231c0,2.088,0.109,3.428,0.332,4.018
		c0.22,0.595,0.63,1.067,1.236,1.422c0.792,0.478,1.701,0.716,2.729,0.716c1.822,0,3.636-0.596,5.44-1.779v5.682
		c-1.542,0.721-2.932,1.23-4.18,1.521C45.596,58.855,44.247,59,42.798,59c-1.647,0-3.101-0.208-4.363-0.623
		c-1.264-0.419-2.347-1.007-3.235-1.777c-0.895-0.77-1.516-1.59-1.86-2.457c-0.346-0.864-0.517-2.121-0.517-3.767V37.75h-3.983
		v-5.093c1.421-0.462,2.631-1.122,3.639-1.977c1.006-0.858,1.818-1.888,2.427-3.092c0.611-1.2,1.033-2.732,1.261-4.588H41.284z"/>
</g>
</svg>