<!-- Generator: Adobe Illustrator 17.0.0, SVG Export Plug-In  -->
<svg version="1.1"
	 xmlns="http://www.w3.org/2000/svg" xmlns:xlink="http://www.w3.org/1999/xlink" xmlns:a="http://ns.adobe.com/AdobeSVGViewerExtensions/3.0/"
	 x="0px" y="0px" width="82px" height="81.999px" viewBox="0 0 82 81.999" enable-background="new 0 0 82 81.999"
	 xml:space="preserve">
<defs>
</defs>
<g>
	<path fill="#FFFFFF" d="M40.999,81.999C18.392,81.999,0,63.607,0,41S18.392,0,40.999,0C63.607,0,82,18.392,82,41
		S63.607,81.999,40.999,81.999z M40.999,2C19.495,2,2,19.495,2,41s17.495,39,38.999,39C62.504,79.999,80,62.504,80,41
		S62.504,2,40.999,2z"/>
	<path fill="#FFFFFF" d="M32.315,34.904h3.721v-3.616c0-1.596,0.04-4.056,1.198-5.579c1.221-1.613,2.896-2.71,5.778-2.71
		c4.695,0,6.672,0.67,6.672,0.67l-0.931,5.514c0,0-1.55-0.449-2.998-0.449c-1.448,0-2.744,0.519-2.744,1.965v4.205h5.936
		l-0.414,5.386h-5.521v18.709h-6.976V40.29h-3.721V34.904z"/>
</g>
</svg>