<!-- Generator: Adobe Illustrator 17.0.0, SVG Export Plug-In  -->
<svg version="1.1"
	 xmlns="http://www.w3.org/2000/svg" xmlns:xlink="http://www.w3.org/1999/xlink" xmlns:a="http://ns.adobe.com/AdobeSVGViewerExtensions/3.0/"
	 x="0px" y="0px" width="82px" height="82px" viewBox="0 0 82 82" enable-background="new 0 0 82 82" xml:space="preserve">
<defs>
</defs>
<g>
	<path fill="#FFFFFF" d="M41.002,82C18.394,82,0,63.607,0,40.999C0,18.392,18.394,0,41.002,0C63.608,0,82,18.392,82,40.999
		C82,63.607,63.608,82,41.002,82z M41.002,2C19.497,2,2,19.495,2,40.999C2,62.504,19.497,80,41.002,80
		C62.506,80,80,62.504,80,40.999C80,19.495,62.506,2,41.002,2z"/>
	<path fill="#FFFFFF" d="M48.366,28.841V35.7c-0.165,0.199-0.361,0.363-0.563,0.49c-0.219,0.127-0.379,0.198-0.526,0.198
		c-0.163,0-0.291-0.054-0.363-0.146c-0.092-0.107-0.128-0.251-0.128-0.47v-6.932h-1.852v7.548c0,0.546,0.11,0.944,0.327,1.216
		c0.216,0.274,0.545,0.399,0.962,0.399c0.363,0,0.708-0.089,1.088-0.271c0.362-0.2,0.709-0.471,1.053-0.853v0.998h1.853v-9.038
		H48.366z M42.722,29.278c-0.491-0.453-1.125-0.672-1.886-0.672c-0.835,0-1.506,0.219-2.015,0.636
		c-0.491,0.416-0.742,0.96-0.742,1.669v4.683c0,0.779,0.252,1.376,0.724,1.831c0.49,0.454,1.144,0.688,1.942,0.688
		c0.833,0,1.507-0.217,1.977-0.672c0.491-0.434,0.728-1.033,0.728-1.812v-4.663C43.449,30.275,43.194,29.712,42.722,29.278z
		 M41.561,35.773c0,0.236-0.073,0.417-0.218,0.562c-0.144,0.146-0.344,0.218-0.598,0.218c-0.236,0-0.435-0.071-0.563-0.218
		c-0.125-0.127-0.2-0.326-0.2-0.562v-4.936c0-0.199,0.075-0.361,0.218-0.47c0.127-0.129,0.327-0.183,0.545-0.183
		c0.235,0,0.437,0.054,0.598,0.183c0.146,0.109,0.218,0.271,0.218,0.47V35.773z M35.827,25.628L34.54,30.53h-0.146l-1.343-4.901
		h-2.103l2.484,7.404v4.846h2.087v-5.081l2.413-7.169H35.827z M50.254,47.205c0.106,0.146,0.161,0.397,0.161,0.725v0.833h-1.433
		V47.93c0-0.328,0.037-0.58,0.166-0.725c0.106-0.146,0.289-0.238,0.563-0.238C49.962,46.967,50.144,47.059,50.254,47.205z
		 M44.556,47.168c-0.109-0.146-0.291-0.218-0.508-0.218c-0.109,0-0.236,0.018-0.345,0.072c-0.109,0.055-0.234,0.146-0.343,0.256
		v5.116c0.126,0.127,0.271,0.236,0.398,0.29c0.127,0.055,0.254,0.092,0.38,0.092c0.219,0,0.363-0.055,0.453-0.184
		c0.092-0.106,0.146-0.29,0.146-0.563v-4.244C44.736,47.512,44.683,47.314,44.556,47.168z M44.556,47.168
		c-0.109-0.146-0.291-0.218-0.508-0.218c-0.109,0-0.236,0.018-0.345,0.072c-0.109,0.055-0.234,0.146-0.343,0.256v5.116
		c0.126,0.127,0.271,0.236,0.398,0.29c0.127,0.055,0.254,0.092,0.38,0.092c0.219,0,0.363-0.055,0.453-0.184
		c0.092-0.106,0.146-0.29,0.146-0.563v-4.244C44.736,47.512,44.683,47.314,44.556,47.168z M53.864,40.835H28.136
		c-2.814,0-5.136,2.324-5.136,5.153v5.246c0,2.829,2.321,5.135,5.136,5.135h25.729c2.812,0,5.136-2.306,5.136-5.135v-5.246
		C59,43.159,56.676,40.835,53.864,40.835z M35.067,44.446h-1.924v9.508H31.29v-9.508h-1.904v-1.613h5.681V44.446z M40.472,53.954
		h-1.65v-0.907c-0.292,0.343-0.617,0.597-0.942,0.762c-0.328,0.183-0.637,0.273-0.947,0.273c-0.378,0-0.669-0.128-0.869-0.381
		c-0.183-0.237-0.272-0.599-0.272-1.09v-6.875h1.632v6.313c0,0.18,0.037,0.328,0.11,0.418c0.055,0.09,0.181,0.125,0.329,0.125
		c0.124,0,0.271-0.053,0.454-0.18c0.197-0.11,0.362-0.255,0.506-0.436v-6.241h1.65V53.954z M46.423,52.249
		c0,0.581-0.125,1.033-0.38,1.343c-0.253,0.307-0.635,0.471-1.122,0.471c-0.33,0-0.602-0.055-0.855-0.18
		c-0.254-0.129-0.49-0.309-0.706-0.563v0.635h-1.651V42.833h1.651v3.572c0.216-0.234,0.452-0.434,0.706-0.563
		c0.253-0.125,0.508-0.197,0.762-0.197c0.508,0,0.909,0.18,1.179,0.526c0.275,0.344,0.417,0.851,0.417,1.524V52.249z M52.123,50.054
		h-3.141v1.542c0,0.435,0.037,0.728,0.148,0.891c0.105,0.18,0.307,0.252,0.563,0.252c0.27,0,0.452-0.072,0.562-0.217
		c0.106-0.127,0.161-0.455,0.161-0.926v-0.381h1.708v0.416c0,0.855-0.217,1.488-0.637,1.907c-0.397,0.435-1.017,0.635-1.83,0.635
		c-0.746,0-1.326-0.218-1.744-0.671c-0.417-0.454-0.634-1.071-0.634-1.871v-3.681c0-0.709,0.235-1.29,0.709-1.742
		c0.452-0.437,1.051-0.672,1.794-0.672c0.746,0,1.327,0.218,1.723,0.636c0.403,0.417,0.62,0.997,0.62,1.778V50.054z M44.047,46.95
		c-0.109,0-0.236,0.018-0.345,0.072c-0.109,0.055-0.234,0.146-0.343,0.256v5.116c0.126,0.127,0.271,0.236,0.398,0.29
		c0.127,0.055,0.254,0.092,0.38,0.092c0.219,0,0.363-0.055,0.453-0.184c0.092-0.106,0.146-0.29,0.146-0.563v-4.244
		c0-0.274-0.054-0.472-0.181-0.618C44.447,47.021,44.265,46.95,44.047,46.95z M44.556,47.168c-0.109-0.146-0.291-0.218-0.508-0.218
		c-0.109,0-0.236,0.018-0.345,0.072c-0.109,0.055-0.234,0.146-0.343,0.256v5.116c0.126,0.127,0.271,0.236,0.398,0.29
		c0.127,0.055,0.254,0.092,0.38,0.092c0.219,0,0.363-0.055,0.453-0.184c0.092-0.106,0.146-0.29,0.146-0.563v-4.244
		C44.736,47.512,44.683,47.314,44.556,47.168z M44.556,47.168c-0.109-0.146-0.291-0.218-0.508-0.218
		c-0.109,0-0.236,0.018-0.345,0.072c-0.109,0.055-0.234,0.146-0.343,0.256v5.116c0.126,0.127,0.271,0.236,0.398,0.29
		c0.127,0.055,0.254,0.092,0.38,0.092c0.219,0,0.363-0.055,0.453-0.184c0.092-0.106,0.146-0.29,0.146-0.563v-4.244
		C44.736,47.512,44.683,47.314,44.556,47.168z"/>
</g>
</svg>